<svg xmlns="http://www.w3.org/2000/svg" viewBox="0 0 60 60"><path d="M55.232 43.104C58.353 38.745 60 33.704 60 28.5c0-14.888-13.458-27-30-27S0 13.612 0 28.5s13.458 27 30 27c4.262 0 8.378-.79 12.244-2.348 6.804 3.927 16.212 5.282 16.617 5.338a1 1 0 0 0 .847-1.697c-2.3-2.299-3.885-7.152-4.476-13.689zM42.84 51.182c-2.11-1.302-4.467-2.814-5.017-3.249a1 1 0 0 0-1.337-.291c-.299.18-.489.513-.492.862-.003.589.006.77 4.081 3.316A30.706 30.706 0 0 1 30 53.5c-15.439 0-28-11.215-28-25s12.561-25 28-25 28 11.215 28 25c0 4.897-1.591 9.643-4.601 13.724a1.001 1.001 0 0 0-.192.677c.35 4.174 1.24 9.491 3.441 13.16-3.334-.678-9.344-2.183-13.808-4.879z" fill="#fff"/></svg>