<svg xmlns="http://www.w3.org/2000/svg" viewBox="0 0 511.856 511.856"><path d="M498.456 259.312l-234.667-256c-4.032-4.416-11.691-4.416-15.723 0l-234.667 256a10.649 10.649 0 0 0-1.899 11.499 10.676 10.676 0 0 0 9.771 6.379h53.333v224c0 5.888 4.779 10.667 10.667 10.667h106.667c5.888 0 10.667-4.779 10.667-10.667v-160h106.667v160c0 5.888 4.779 10.667 10.667 10.667h106.667c5.888 0 10.667-4.779 10.667-10.667v-224h53.333c4.224 0 8.064-2.496 9.749-6.379a10.649 10.649 0 0 0-1.899-11.499zm-71.851-3.456c-5.888 0-10.667 4.779-10.667 10.667v224h-85.333v-160c0-5.888-4.779-10.667-10.667-10.667h-128c-5.888 0-10.667 4.779-10.667 10.667v160H95.939v-224c0-5.888-4.779-10.667-10.667-10.667H45.528L255.939 26.309 466.35 255.856h-39.745z"/></svg>