<svg xmlns="http://www.w3.org/2000/svg" width="512" height="512" viewBox="0 0 612.02 612.02"><path d="M611.99 546.394c0 36.16-29.436 65.585-65.596 65.585-19.81 0-38.353-8.817-50.862-24.188l-129.341-140.09c-37.646 22.823-80.642 34.846-124.903 34.846C108.258 482.547.031 374.33.031 241.299.03 108.27 108.258.04 241.279.04S482.527 108.267 482.527 241.3c0 38.433-9.222 76.454-26.745 110.44L592.16 499.444c12.63 12.074 19.83 28.91 19.83 46.95zM20.254 241.299c0 121.878 99.157 221.024 221.024 221.024 43.188 0 85.061-12.488 121.078-36.11a10.09 10.09 0 0 1 12.976 1.598L510.8 574.545c9.07 11.113 21.892 17.21 35.594 17.21 25.017 0 45.362-20.355 45.362-45.361 0-12.468-4.985-24.118-14.035-32.793L436.053 360.184c-2.953-3.195-3.549-7.948-1.416-11.77 18.09-32.6 27.657-69.64 27.657-107.104 0-121.879-99.158-221.035-221.026-221.035-121.856-.01-221.013 99.146-221.013 221.024zm388.325 0c0 92.24-75.05 167.27-167.3 167.27C149.038 408.57 74 333.53 74 241.3 74 149.05 149.04 74 241.28 74c92.25 0 167.3 75.05 167.3 167.3zm-314.357 0c0 81.087 65.97 147.046 147.056 147.046 81.108 0 147.078-65.969 147.078-147.046 0-81.097-65.97-147.077-147.078-147.077-81.076 0-147.056 65.98-147.056 147.077z" data-original="#000000" class="active-path" data-old_color="#ffffff" fill="#fff"/></svg>