<svg xmlns="http://www.w3.org/2000/svg" viewBox="0 0 33.062 33.062"><path d="M25.615 26.608H6.442A6.449 6.449 0 0 1 0 20.167a6.45 6.45 0 0 1 6.294-6.44 10.046 10.046 0 0 1 9.67-7.274c3.738 0 7.104 2.026 8.869 5.311.28-.031.534-.046.781-.046 4.106 0 7.446 3.339 7.446 7.443.002 4.107-3.339 7.447-7.445 7.447zM6.442 14.726A5.448 5.448 0 0 0 1 20.167c0 3 2.441 5.44 5.442 5.44h19.173a6.453 6.453 0 0 0 6.446-6.446c0-3.553-2.892-6.443-6.446-6.443a6.56 6.56 0 0 0-.991.083.502.502 0 0 1-.522-.273c-1.544-3.129-4.663-5.074-8.138-5.074a9.049 9.049 0 0 0-8.804 6.904.52.52 0 0 1-.498.38l-.22-.012z" style="&#10;    fill: #fff;&#10;"/><path d="M25.615 26.608a.5.5 0 0 1 0-1 6.453 6.453 0 0 0 6.446-6.446c0-3.553-2.892-6.443-6.446-6.443a6.45 6.45 0 0 0-4.858 2.208.5.5 0 1 1-.753-.657 7.443 7.443 0 0 1 5.611-2.55c4.106 0 7.446 3.339 7.446 7.443.001 4.105-3.34 7.445-7.446 7.445z" style="&#10;    fill: #fff;&#10;"/></svg>