<svg xmlns="http://www.w3.org/2000/svg" id="cloud" viewBox="0 0 46.6 46.6"><path d="M25.615 39.658H6.442A6.449 6.449 0 0 1 0 33.217a6.45 6.45 0 0 1 6.294-6.44 10.044 10.044 0 0 1 9.67-7.274c3.738 0 7.104 2.026 8.869 5.311.279-.031.534-.046.781-.046 4.105 0 7.446 3.339 7.446 7.443.001 4.106-3.339 7.447-7.445 7.447zM6.442 27.776c-3 0-5.442 2.441-5.442 5.441s2.441 5.44 5.442 5.44h19.173a6.454 6.454 0 0 0 6.446-6.446c0-3.553-2.892-6.443-6.446-6.443a6.54 6.54 0 0 0-.991.083.5.5 0 0 1-.522-.273c-1.544-3.129-4.663-5.074-8.138-5.074a9.049 9.049 0 0 0-8.804 6.904c-.056.228-.259.369-.498.38l-.22-.012z" style="&#10;    fill: #fff;&#10;"/><path d="M25.615 39.658a.5.5 0 0 1 0-1 6.454 6.454 0 0 0 6.446-6.446c0-3.553-2.892-6.443-6.446-6.443a6.444 6.444 0 0 0-4.857 2.208.501.501 0 0 1-.754-.658 7.443 7.443 0 0 1 5.611-2.55c4.105 0 7.446 3.339 7.446 7.443 0 4.105-3.34 7.446-7.446 7.446zm10.429-9.849a.5.5 0 0 1-.353-.855 7.797 7.797 0 0 0 2.312-5.564c0-4.33-3.522-7.853-7.853-7.853a7.856 7.856 0 0 0-5.937 2.713.501.501 0 0 1-.756-.656 8.857 8.857 0 0 1 6.693-3.058c4.881 0 8.853 3.971 8.853 8.853 0 2.372-.925 4.6-2.605 6.273a.498.498 0 0 1-.354.147zM30.15 11.695a.5.5 0 0 1-.5-.5V7.442a.5.5 0 0 1 1 0v3.753a.5.5 0 0 1-.5.5zM46.1 23.89h-3.753a.5.5 0 0 1 0-1H46.1a.5.5 0 0 1 0 1zm-7.326-8.624a.5.5 0 0 1-.354-.853l2.654-2.653a.5.5 0 0 1 .707.707l-2.654 2.653a.498.498 0 0 1-.353.146zm2.653 19.902a.502.502 0 0 1-.354-.146L38.42 32.37a.5.5 0 0 1 .707-.707l2.653 2.652a.5.5 0 0 1-.353.853zM21.524 15.266a.502.502 0 0 1-.354-.146l-2.652-2.653a.5.5 0 0 1 .707-.707l2.652 2.653a.5.5 0 0 1-.353.853z" style="&#10;    fill: #fff;&#10;"/></svg>